<?xml version="1.0" encoding="UTF-8" standalone="no"?>
<!-- Uploaded to: SVG Repo, www.svgrepo.com, Generator: SVG Repo Mixer Tools -->

<svg
   fill="#000000"
   height="800px"
   width="800px"
   version="1.1"
   id="Capa_1"
   viewBox="0 0 220.927 220.927"
   xml:space="preserve"
   sodipodi:docname="speaker--svgrepo-com--electronic-stuff-fill-collection--white.svg"
   inkscape:version="1.4 (e7c3feb100, 2024-10-09)"
   xmlns:inkscape="http://www.inkscape.org/namespaces/inkscape"
   xmlns:sodipodi="http://sodipodi.sourceforge.net/DTD/sodipodi-0.dtd"
   xmlns="http://www.w3.org/2000/svg"
   xmlns:svg="http://www.w3.org/2000/svg"><defs
   id="defs1" /><sodipodi:namedview
   id="namedview1"
   pagecolor="#ffffff"
   bordercolor="#000000"
   borderopacity="0.25"
   inkscape:showpageshadow="2"
   inkscape:pageopacity="0.0"
   inkscape:pagecheckerboard="0"
   inkscape:deskcolor="#d1d1d1"
   inkscape:zoom="0.9675"
   inkscape:cx="399.4832"
   inkscape:cy="399.4832"
   inkscape:window-width="1896"
   inkscape:window-height="1006"
   inkscape:window-x="0"
   inkscape:window-y="0"
   inkscape:window-maximized="0"
   inkscape:current-layer="Capa_1" />
<path
   d="M55.707,220.927v-14.073h26.5v14.073H55.707z M138.72,206.854v14.073h26.5v-14.073H138.72z M110.464,68.748  c7.716,0,13.993-6.278,13.993-13.994S118.18,40.76,110.464,40.76c-7.716,0-13.994,6.277-13.994,13.994  S102.748,68.748,110.464,68.748z M110.464,116.46c-12.188,0-22.104,9.915-22.104,22.103s9.916,22.103,22.104,22.103  c12.186,0,22.101-9.915,22.101-22.103S122.651,116.46,110.464,116.46z M177.96,196.854H42.967V0H177.96V196.854z M86.47,54.754  c0,13.23,10.764,23.994,23.994,23.994c13.229,0,23.993-10.764,23.993-23.994c0-13.23-10.764-23.994-23.993-23.994  C97.234,30.76,86.47,41.524,86.47,54.754z M148.361,138.563c0-20.896-17-37.897-37.896-37.897  c-20.897,0-37.899,17.001-37.899,37.897s17.002,37.898,37.899,37.898C131.361,176.46,148.361,159.459,148.361,138.563z   M162.227,92.017c0-4.694-3.807-8.499-8.5-8.499c-4.693,0-8.5,3.806-8.5,8.499c0,4.695,3.807,8.501,8.5,8.501  C158.42,100.518,162.227,96.712,162.227,92.017z"
   id="path1"
   style="fill:#ffffff" />
</svg>
