<?xml version="1.0" encoding="UTF-8" standalone="no"?>
<!-- Uploaded to: SVG Repo, www.svgrepo.com, Generator: SVG Repo Mixer Tools -->

<svg
   fill="#000000"
   height="800px"
   width="800px"
   version="1.1"
   id="Layer_1"
   viewBox="0 0 512 512"
   xml:space="preserve"
   sodipodi:docname="keyboard--svgrepo-com--design-thinking 6-collection--white.svg"
   inkscape:version="1.4 (e7c3feb100, 2024-10-09)"
   xmlns:inkscape="http://www.inkscape.org/namespaces/inkscape"
   xmlns:sodipodi="http://sodipodi.sourceforge.net/DTD/sodipodi-0.dtd"
   xmlns="http://www.w3.org/2000/svg"
   xmlns:svg="http://www.w3.org/2000/svg"><defs
   id="defs2" /><sodipodi:namedview
   id="namedview2"
   pagecolor="#ffffff"
   bordercolor="#000000"
   borderopacity="0.25"
   inkscape:showpageshadow="2"
   inkscape:pageopacity="0.0"
   inkscape:pagecheckerboard="0"
   inkscape:deskcolor="#d1d1d1"
   inkscape:zoom="0.9675"
   inkscape:cx="400"
   inkscape:cy="399.4832"
   inkscape:window-width="1896"
   inkscape:window-height="1006"
   inkscape:window-x="0"
   inkscape:window-y="0"
   inkscape:window-maximized="0"
   inkscape:current-layer="Layer_1" />
<g
   id="g2"
   style="fill:#ffffff">
	<g
   id="g1"
   style="fill:#ffffff">
		<path
   d="M271.175,253.302c-0.52-25.381-21.314-45.871-46.818-45.871H107.754c-9.057,0-16.425-7.368-16.425-16.425    c0-9.057,7.368-16.425,16.425-16.425H345.26c25.829,0,46.843-21.013,46.843-46.841c0-25.829-21.014-46.843-46.843-46.843H214.524    c-9.056,0-16.424-7.368-16.424-16.425V37.719h-30.417v26.753c0,25.829,21.013,46.843,46.841,46.843H345.26    c9.057,0,16.425,7.368,16.425,16.425c0,9.056-7.369,16.424-16.425,16.424H107.754c-25.829,0-46.843,21.013-46.843,46.843    s21.013,46.843,46.843,46.843h116.601c8.729,0,15.869,6.85,16.376,15.454H0v220.978h512V253.302H271.175z M266.722,300.941    l33.286,0.002l-0.002,30.417l-33.286-0.002L266.722,300.941z M266.722,348.582l33.286,0.002l-0.002,30.417l-33.286-0.002    L266.722,348.582z M211.995,300.941l33.286,0.002l-0.002,30.417l-33.286-0.002L211.995,300.941z M211.995,348.582l33.286,0.002    l-0.002,30.417l-33.286-0.002L211.995,348.582z M157.267,300.941l33.287,0.002l-0.002,30.417l-33.287-0.002L157.267,300.941z     M81.097,426.641l-33.286-0.002l0.002-30.417l33.286,0.002L81.097,426.641z M81.097,379.001l-33.286-0.002l0.002-30.417    l33.286,0.002L81.097,379.001z M81.097,331.361l-33.286-0.002l0.002-30.417l33.286,0.002L81.097,331.361z M135.824,426.641    l-33.286-0.002l0.002-30.417l33.286,0.002L135.824,426.641z M135.824,379.001l-33.286-0.002l0.002-30.417l33.286,0.002    L135.824,379.001z M135.824,331.361l-33.286-0.002l0.002-30.417l33.286,0.002L135.824,331.361z M157.267,348.582l33.287,0.002    l-0.002,30.417l-33.287-0.002L157.267,348.582z M354.734,426.642l-197.467-0.002v-30.417l197.467,0.002V426.642z M354.733,379.001    l-33.286-0.002l0.002-30.417l33.286,0.002L354.733,379.001z M354.733,331.361l-33.286-0.002l0.002-30.417l33.286,0.002    L354.733,331.361z M409.459,426.641l-33.286-0.002l0.002-30.417l33.286,0.002L409.459,426.641z M409.459,379.001l-33.286-0.002    l0.002-30.417l33.286,0.002L409.459,379.001z M409.459,331.361l-33.286-0.002l0.002-30.417l33.286,0.002L409.459,331.361z     M464.187,426.641l-33.286-0.002l0.002-30.417l33.286,0.002L464.187,426.641z M464.187,379.001l-33.286-0.002l0.002-30.417    l33.286,0.002L464.187,379.001z M464.187,331.361l-33.286-0.002l0.002-30.417l33.286,0.002L464.187,331.361z"
   id="path1"
   style="fill:#ffffff" />
	</g>
</g>
</svg>
