<?xml version="1.0" encoding="UTF-8" standalone="no"?>
<!-- Uploaded to: SVG Repo, www.svgrepo.com, Generator: SVG Repo Mixer Tools -->

<svg
   fill="#000000"
   height="800px"
   width="800px"
   version="1.1"
   id="Layer_1"
   viewBox="0 0 481.493 481.493"
   xml:space="preserve"
   sodipodi:docname="mouse--svgrepo-com--education-24-collection--white.svg"
   inkscape:version="1.4 (e7c3feb100, 2024-10-09)"
   xmlns:inkscape="http://www.inkscape.org/namespaces/inkscape"
   xmlns:sodipodi="http://sodipodi.sourceforge.net/DTD/sodipodi-0.dtd"
   xmlns="http://www.w3.org/2000/svg"
   xmlns:svg="http://www.w3.org/2000/svg"><defs
   id="defs6" /><sodipodi:namedview
   id="namedview6"
   pagecolor="#ffffff"
   bordercolor="#000000"
   borderopacity="0.25"
   inkscape:showpageshadow="2"
   inkscape:pageopacity="0.0"
   inkscape:pagecheckerboard="0"
   inkscape:deskcolor="#d1d1d1"
   inkscape:zoom="0.9675"
   inkscape:cx="399.4832"
   inkscape:cy="399.4832"
   inkscape:window-width="1896"
   inkscape:window-height="1006"
   inkscape:window-x="0"
   inkscape:window-y="0"
   inkscape:window-maximized="0"
   inkscape:current-layer="Layer_1" />
<g
   id="g2">
	<g
   id="g1">
		<path
   d="M233.228,52.737V0C154.696,4.008,93.358,68.369,93.358,147.037v45.305h139.869v-35.512    c-14.961-5.334-25.835-26.263-25.835-52.047C207.393,79,218.267,58.071,233.228,52.737z"
   id="path1"
   style="fill:#ffffff" />
	</g>
</g>
<g
   id="g4">
	<g
   id="g3">
		<path
   d="M248.286,0.001v52.735c14.961,5.334,25.834,26.263,25.834,52.047c0,25.784-10.873,46.713-25.834,52.047v35.512h139.848    v-45.305C388.135,68.376,326.808,4.021,248.286,0.001z"
   id="path2"
   style="fill:#ffffff" />
	</g>
</g>
<g
   id="g6">
	<g
   id="g5">
		<path
   d="M93.358,207.401v126.742c0,81.242,66.108,147.35,147.426,147.35c81.242,0,147.351-66.108,147.351-147.35V207.401H93.358z     M240.757,419.078c-25.817,0-45.287-11.184-45.287-26.007c0-14.824,19.47-26.007,45.287-26.007    c25.816,0,45.286,11.183,45.286,26.007C286.043,407.894,266.573,419.078,240.757,419.078z"
   id="path4"
   style="fill:#ffffff" />
	</g>
</g>
</svg>
