<?xml version="1.0" encoding="UTF-8" standalone="no"?>
<!-- Uploaded to: SVG Repo, www.svgrepo.com, Generator: SVG Repo Mixer Tools -->

<svg
   fill="#000000"
   width="800px"
   height="800px"
   viewBox="0 0 32 32"
   version="1.1"
   id="svg1"
   sodipodi:docname="microphone2--svgrepo-com--brankic-glyph-icons-collection--white.svg"
   inkscape:version="1.4 (e7c3feb100, 2024-10-09)"
   xmlns:inkscape="http://www.inkscape.org/namespaces/inkscape"
   xmlns:sodipodi="http://sodipodi.sourceforge.net/DTD/sodipodi-0.dtd"
   xmlns="http://www.w3.org/2000/svg"
   xmlns:svg="http://www.w3.org/2000/svg"
   xmlns:rdf="http://www.w3.org/1999/02/22-rdf-syntax-ns#"
   xmlns:cc="http://creativecommons.org/ns#"
   xmlns:dc="http://purl.org/dc/elements/1.1/">
  <defs
     id="defs1" />
  <sodipodi:namedview
     id="namedview1"
     pagecolor="#ffffff"
     bordercolor="#000000"
     borderopacity="0.25"
     inkscape:showpageshadow="2"
     inkscape:pageopacity="0.0"
     inkscape:pagecheckerboard="0"
     inkscape:deskcolor="#d1d1d1"
     inkscape:zoom="0.9675"
     inkscape:cx="400"
     inkscape:cy="399.4832"
     inkscape:window-width="1896"
     inkscape:window-height="1006"
     inkscape:window-x="0"
     inkscape:window-y="0"
     inkscape:window-maximized="0"
     inkscape:current-layer="svg1" />
  <title
     id="title1">microphone2</title>
  <path
     d="M16.4 25.936v2.993c2.992 0.161 5.305 1.151 5.305 2.075 0 0.023-12.268 0.023-12.268 0 0-0.889 2.142-1.849 4.973-2.062v-3.018c-3.614-0.518-6.402-3.597-6.402-7.354v-1.555h0.995v1.555c0 3.57 2.894 6.465 6.464 6.466h0.004c3.57-0.001 6.464-2.896 6.464-6.466v-1.555h1.058v1.555c-0.001 3.801-2.917 6.903-6.593 7.366zM15.5 23.955c-3.035 0-5.494-2.459-5.494-5.494v-2.477h4.495v-0.999h-4.495v-0.999h4.495v-0.998h-4.495v-0.999h4.495v-0.999h-4.495v-0.999h4.495v-0.999h-4.495v-1.582c0-3.034 2.459-5.432 5.494-5.432 3.034 0 5.494 2.397 5.494 5.432v1.582h-4.496v0.999h4.496v0.999h-4.496v0.999h4.496v0.999h-4.496v0.998h4.496v0.999h-4.496v0.999h4.496v2.477c0 3.035-2.46 5.494-5.494 5.494z"
     id="path1"
     style="fill:#ffffff" />
  <metadata
     id="metadata1">
    <rdf:RDF>
      <cc:Work
         rdf:about="">
        <dc:title>microphone2</dc:title>
      </cc:Work>
    </rdf:RDF>
  </metadata>
</svg>
