<?xml version="1.0" encoding="UTF-8" standalone="no"?>
<!-- Uploaded to: SVG Repo, www.svgrepo.com, Generator: SVG Repo Mixer Tools -->

<svg
   fill="#000000"
   height="800px"
   width="800px"
   version="1.1"
   id="Layer_1"
   viewBox="0 0 481.882 481.882"
   xml:space="preserve"
   sodipodi:docname="floppy-disk-save--svgrepo-com--education-24-collection--white.svg"
   inkscape:version="1.4 (e7c3feb100, 2024-10-09)"
   xmlns:inkscape="http://www.inkscape.org/namespaces/inkscape"
   xmlns:sodipodi="http://sodipodi.sourceforge.net/DTD/sodipodi-0.dtd"
   xmlns="http://www.w3.org/2000/svg"
   xmlns:svg="http://www.w3.org/2000/svg"><defs
   id="defs6" /><sodipodi:namedview
   id="namedview6"
   pagecolor="#ffffff"
   bordercolor="#000000"
   borderopacity="0.25"
   inkscape:showpageshadow="2"
   inkscape:pageopacity="0.0"
   inkscape:pagecheckerboard="0"
   inkscape:deskcolor="#d1d1d1"
   inkscape:zoom="0.9675"
   inkscape:cx="400"
   inkscape:cy="399.4832"
   inkscape:window-width="1920"
   inkscape:window-height="1080"
   inkscape:window-x="0"
   inkscape:window-y="0"
   inkscape:window-maximized="0"
   inkscape:current-layer="Layer_1" />
<g
   id="g2"
   style="fill:#ffffff">
	<g
   id="g1"
   style="fill:#ffffff">
		<path
   d="M96.397,279.562v202.321h289.088V279.562H96.397z M361.228,442.418H120.647V427.36h240.581V442.418z M361.228,401.29    H120.647v-15.059h240.581V401.29z M361.228,360.161H120.647v-15.059h240.581V360.161z M361.228,319.026H120.647v-15.059h240.581    V319.026z"
   id="path1"
   style="fill:#ffffff" />
	</g>
</g>
<g
   id="g4"
   style="fill:#ffffff">
	<g
   id="g3"
   style="fill:#ffffff">
		<path
   d="M114.941,0v147.117c0,4.232,3.441,7.673,7.669,7.673h236.654c4.235,0,7.677-3.442,7.677-7.673V0H114.941z     M336.163,126.856H298.12V42.992h38.044V126.856z"
   id="path2"
   style="fill:#ffffff" />
	</g>
</g>
<g
   id="g6"
   style="fill:#ffffff">
	<g
   id="g5"
   style="fill:#ffffff">
		<path
   d="M473.941,72.867L409.014,7.93C403.97,2.889,396.985,0,389.86,0H382v147.117c0,12.533-10.198,22.732-22.736,22.732H122.61    c-12.53,0-22.728-10.199-22.728-22.732V0H27.088C12.154,0,0,12.154,0,27.092V454.79c0,14.938,12.154,27.092,27.088,27.092h54.25    v-209.85c0-4.158,3.368-7.529,7.529-7.529h304.147c4.162,0,7.529,3.372,7.529,7.529v209.85h54.243    c14.941,0,27.096-12.155,27.096-27.092V92.021C481.882,84.89,478.985,77.911,473.941,72.867z"
   id="path4"
   style="fill:#ffffff" />
	</g>
</g>
</svg>
