<?xml version="1.0" encoding="UTF-8" standalone="no"?>
<!-- Uploaded to: SVG Repo, www.svgrepo.com, Generator: SVG Repo Mixer Tools -->

<svg
   version="1.0"
   id="Layer_1"
   width="800px"
   height="800px"
   viewBox="0 0 64 64"
   enable-background="new 0 0 64 64"
   xml:space="preserve"
   sodipodi:docname="headphones--svgrepo-com--responsive-solid-icons-collection--white.svg"
   inkscape:version="1.4 (e7c3feb100, 2024-10-09)"
   xmlns:inkscape="http://www.inkscape.org/namespaces/inkscape"
   xmlns:sodipodi="http://sodipodi.sourceforge.net/DTD/sodipodi-0.dtd"
   xmlns="http://www.w3.org/2000/svg"
   xmlns:svg="http://www.w3.org/2000/svg"><defs
   id="defs3" /><sodipodi:namedview
   id="namedview3"
   pagecolor="#ffffff"
   bordercolor="#000000"
   borderopacity="0.25"
   inkscape:showpageshadow="2"
   inkscape:pageopacity="0.0"
   inkscape:pagecheckerboard="0"
   inkscape:deskcolor="#d1d1d1"
   inkscape:zoom="0.9675"
   inkscape:cx="399.4832"
   inkscape:cy="399.4832"
   inkscape:window-width="1896"
   inkscape:window-height="1006"
   inkscape:window-x="0"
   inkscape:window-y="0"
   inkscape:window-maximized="0"
   inkscape:current-layer="Layer_1" />
<g
   id="g3"
   style="fill:#ffffff">
	<path
   fill="#231F20"
   d="M6,40.078c-3.391,0.486-6,3.395-6,6.92V57c0,3.525,2.609,6.434,6,6.92V40.078z"
   id="path1"
   style="fill:#ffffff" />
	<path
   fill="#231F20"
   d="M56,40V29.998c0.553,0,1-0.447,1-1v-4c0-13.807-11.193-25-25-25s-25,11.193-25,25v4c0,0.553,0.447,1,1,1v10   v24h4c2.211,0,4-1.789,4-4v-16c0-1.479-0.809-2.754-2-3.445V29.998c0.553,0,1-0.447,1-1v-4c0-9.389,7.611-17,17-17s17,7.611,17,17   v4c0,0.553,0.447,1,1,1v10.555c-1.191,0.693-2,1.968-2,3.447v16c0,2.211,1.789,4,4,4h4V40z M12,39.998h-2v-10h2V39.998z M52,40   V29.998h2V40H52z"
   id="path2"
   style="fill:#ffffff" />
	<path
   fill="#231F20"
   d="M58,40.078V63.92c3.391-0.486,6-3.395,6-6.92V46.998C64,43.473,61.391,40.564,58,40.078z"
   id="path3"
   style="fill:#ffffff" />
</g>
</svg>
